<svg class="logo" viewBox="0 0 106.318 72.312164">
 <g transform="translate(-46.284 -115.38)"> 
  <path d="m0.73028 270.58c0.21455-1.08 9.5807-62.22 20.814-135.87 11.233-73.655 20.514-134.01 20.626-134.12 0.11142-0.11142 35.129 4.0531 77.817 9.2545l77.614 9.457-0.18086 107.87-0.18087 107.87-97.143 18.72c-53.429 10.296-97.731 18.734-98.45 18.75-1.048 0.0239-1.2295-0.35914-0.91666-1.9345z" transform="matrix(.26458 0 0 .26458 46.284 115.38)" stroke-width=".71429" fill="#fff"/>
  <path d="m301.35 253.74-96.61-18.66v-215.79l77.27-9.4377c42.5-5.1886 77.41-9.291 77.59-9.1165 0.3 0.3024 41.52 269.06 41.55 270.91 0.008 0.49107-0.70924 0.85729-1.5932 0.81383-0.88393-0.0434-45.08-8.4729-98.214-18.732z" transform="matrix(.26458 0 0 .26458 46.284 115.38)" stroke-width=".71429" fill="#fff"/>
 </g>
</svg>
