<?xml version="1.0" encoding="UTF-8" standalone="no"?>
<svg id="svg66" xmlns:rdf="http://www.w3.org/1999/02/22-rdf-syntax-ns#" xmlns="http://www.w3.org/2000/svg" height="2905pt" width="2883.7pt" version="1.2" xmlns:cc="http://creativecommons.org/ns#" xmlns:dc="http://purl.org/dc/elements/1.1/" viewBox="0 0 2883.72 2904.96">
 <metadata id="metadata70">
  <rdf:RDF>
   <cc:Work rdf:about="">
    <dc:format>image/svg+xml</dc:format>
    <dc:type rdf:resource="http://purl.org/dc/dcmitype/StillImage"/>
    <dc:title/>
   </cc:Work>
  </rdf:RDF>
 </metadata>
 <defs id="defs35">
  <clipPath id="clip1">
   <path id="path29" d="m559 2855h1755v50h-1755z"/>
  </clipPath>
  <clipPath id="clip2">
   <path id="path32" d="m5 2h2878.7v2739h-2878.7z"/>
  </clipPath>
 </defs>
 <g id="surface1234">
  <g id="g39" clip-path="url(#clip1)">
   <path id="path37" d="m591.67 2905c-15.67-10.3-15.67-10.3-31.31-20.2-1.29-1.9-1.55-4-0.68-6.4 16.65-10.7 16.65-14.4 32.85-23.1 5.39 0 1634.7 0.2 1689 0 0 0 29.4 19.4 31.6 21 0.4 0.9 0.4 1.1 0 1.8-14.7 14.7-19.5 17.6-31.2 26.9z"/>
  </g>
  <path id="path41" d="m1571.8 498.01c-6.5 9.1-150.5 153.26-152.1 156.4-3.7 6.98-3 13.59 1.8 19.71 1.6 2 41.3 25.49 48.9 24.27 10.6-1.7 181.5-173.02 237.8-228.91 2.2-2.25 4.5-4.46 6.7-6.82 5.2-5.7 9.7-11.88 12.8-18.99 1.1-2.5 1-4.98-0.8-7.22-8.8-11.03-18.3-21.42-29.7-29.83-3.1-2.27-6.4-4.26-9.6-6.26-1.8-1.07-3.7-1.04-5.6-0.41-3.3 1.1-6.5 2.72-9.4 4.62-5.7 3.63-10.9 7.85-15.6 12.66-3.2 3.19-6.3 6.37-9.6 9.4-3.3 3.04-6.9 5.74-10.9 7.78-6.5 3.3-13 3.33-19.2-0.46-3-1.81-5.8-3.94-8.4-6.3-3.3-3.02-6.2-6.42-9.3-9.66-3.3-3.47-6.5-7.03-9.9-10.4-2.8-2.7-5.8-5.04-9.2-6.84-5.9-3.06-11.7-3.09-17.4 0.26-2.5 1.46-30.5 31.11-31.9 33.94-2.8 5.53-2.6 11.12 0.7 16.43 1.3 2.16 2.9 4.24 4.6 6.15 2.3 2.63 34.8 39.38 35.3 40.48m881.8 1091.7c-1.6-0.3-3.2-0.5-4.7-1-3.8-1-7-3.1-9.9-5.6-2.7-2.3-5.2-4.8-7.6-7.3-11.7-11.8-23.3-23.8-35.1-35.5-28-27.7-56.1-55.3-84.1-82.9-2.8-2.7-5.5-5.4-8.2-8.1-2.7-2.8-4.9-5.9-6.6-9.4-3.2-6.8-3.2-13.6 0.4-20.3 1.5-2.7 3.5-5.3 5.5-7.8 1.3-1.8 3-3.3 4.6-4.9 5-4.9 10.1-9.8 15.1-14.7l150.3-147c5.7-5.6 11.6-11.1 17.2-16.7 2.5-2.5 4.9-5.1 6.9-8 4.3-6.4 4-13.4-0.5-19.7-1.5-2.1-3.3-3.9-5.1-5.8-6.5-6.5-13.1-13.1-19.7-19.6-2.5-2.5-5.1-4.9-7.8-7.1-1.7-1.5-3.5-2.9-5.4-3.9-3.7-1.9-7.5-2-11.1 0.1-2.4 1.4-4.8 3.2-6.9 5.1-3.3 2.9-6.5 6.1-9.7 9.3-75.9 75.6-151.8 151.3-227.7 227-2.3 2.3-4.6 4.5-6.6 7-1.8 2.2-3.5 4.6-4.8 7.1-3.5 6.4-3.5 12.8-0.3 19.3 2.1 4 4.8 7.6 8 10.8 3.1 3.2 6.3 6.3 9.5 9.5 31.3 31.1 62.8 62.1 94 93.3 42.3 42.3 84.4 84.8 126.6 127.3 2.9 2.9 5.9 5.8 9.1 8.5 2.6 2.3 5.6 4.2 8.9 5.5 3.8 1.4 7.5 1.5 11.3 0.1 3.9-1.4 7.4-3.7 10.5-6.6 2.8-2.5 5.5-5.3 8.2-8 23.1-23.1 46-46.3 69.2-69.3 51.5-51.2 103-102.4 154.8-153.4 8.2-8.2 15-17.4 21.5-26.9 0.7-1.2 0.7-2.6-0.2-3.6-9.1-9.8-17.7-20.1-27.6-29.3-3.5-3.2-7.4-6.1-11.1-9.1-2.4-2-5.2-2.4-8.1-2-1.6 0.3-3.2 0.6-4.7 1.1-7.3 2.6-13.9 6.4-19.7 11.6-2.1 2-4.1 4-6.2 6.1-57 56.1-113.4 112.8-169.3 170-2.9 3-6 5.8-9.1 8.6-2.6 2.3-5.7 4.1-9.1 5.1-1.5 0.5-3.1 0.8-4.7 1.1m-1927.7-476.6c-0.26 4.1 1.27 7.8 3.54 11.4 2.26 3.6 5.2 6.5 8.34 9.3 11.55 10.1 22.46 20.9 33.32 31.8 66.7 66.7 133.42 133.4 200.13 200.2 1.58 1.6 3.13 3.2 4.83 4.7 1.7 1.4 3.49 2.8 5.38 3.9 4.87 3.1 9.76 2.7 14.48-0.3 1.61-1 3.09-2.3 4.51-3.6 1.67-1.5 3.2-3.1 4.78-4.7 28.05-28 56.1-56.1 84.15-84.1 2.26-2.3 4.54-4.5 6.7-6.9 2.18-2.4 3.92-5 5.1-8 1.47-3.8 1.46-7.5-0.05-11.3-1.1-2.7-2.61-5.1-4.53-7.3-1.93-2.1-3.93-4.2-6-6.2-5.77-5.5-11.67-10.9-17.39-16.5-27.68-27-55.32-54.1-82.97-81.2-1.6-1.6-3.22-3.2-4.62-4.9-1.59-2-3.02-4.1-4.37-6.3-1.75-2.8-2.27-5.9-2.2-9.2s1.19-6.2 2.89-9c2.53-4.1 6.03-7.4 9.54-10.7 9.34-8.7 18.83-17.3 27.94-26.3 17.08-16.9 33.93-34 50.87-50.9 70.03-70.25 140.02-140.47 210.12-210.68 14.7-14.72 29.3-29.46 44.1-44.1 3.4-3.38 7-6.52 10.7-9.56 3-2.45 6.4-4.16 10.3-5.05 2.2-0.54 4.3-0.56 6.6-0.05 4.5 1.02 8.4 3.22 11.7 6.23 4.6 4.04 9 8.25 13.2 12.56 30.6 30.9 61.2 61.85 91.8 92.75 2.3 2.26 4.7 4.42 7.3 6.24 7.8 5.41 14.4 5.27 22.1-0.25 1.6-1.11 3.1-2.38 4.5-3.69 1.6-1.54 3.1-3.2 4.6-4.81 10.5-10.82 20.8-21.74 31.4-32.43 14.2-14.31 28.5-28.48 42.8-42.64 5.5-5.43 10.4-11.33 14.6-17.8 7.3-11.35 7.1-7.49 0.5-19.17-2.4-4.22-5.8-7.6-9.2-10.98-67.7-67.17-135.3-134.35-202.9-201.53-9.8-9.7-19.5-19.43-29.4-29.05-2.7-2.68-5.6-5.29-8.7-7.45-6.8-4.69-13.8-4.41-20.6 0.19-1.8 1.25-3.6 2.7-5.2 4.21-1.9 1.72-3.7 3.58-5.5 5.4-101.8 103.11-204.09 205.73-306.83 307.93-85.27 84.82-170.73 169.46-256.1 254.13-5.22 5.2-10.44 10.4-15.65 15.6-2.97 3-5.64 6.1-7.66 9.8-1.71 3.1-3.02 6.4-2.95 10.3m1209-17.6c-0.4-0.9-0.7-1.9-1.3-2.6-6.6-8.3-13-16.6-20.5-24.1-18.7-18.4-37.2-37-55.8-55.5-55.2-55.26-110.3-110.51-165.5-165.75-2.2-2.27-4.5-4.51-6.9-6.66-2.6-2.38-5.5-4.34-8.7-5.85-5.9-2.77-11.8-2.68-17.5 0.43-2.8 1.52-5.4 3.48-7.8 5.5-2.2 1.82-4.2 3.98-6.2 6.03-16.6 16.85-33.1 33.83-49.9 50.55-82.9 82.71-165.8 165.35-248.8 248.05-60.7 60.5-121.4 121-182.19 181.5-31.74 31.6-63.5 63.2-95.22 94.8-3.17 3.2-6.27 6.4-9.18 9.8-1.65 1.9-3.04 4.1-4.21 6.4-1.38 2.7-1.25 5.6-0.04 8.3 1.29 3 3.22 5.6 5.41 7.9 3.72 4 7.49 7.9 11.36 11.7 74.53 73.9 148.97 147.8 222.57 222.6 2.3 2.3 4.6 4.6 6.9 6.7 2.7 2.3 5.6 4.3 8.8 5.9 5.9 2.7 11.8 2.8 17.5-0.3 2.5-1.3 4.9-3 7.1-4.8 2.3-1.8 4.3-3.9 6.3-5.9 26.2-26.3 52.3-52.7 79.4-78.1 1.9-1.7 3.7-3.5 5.4-5.5 2.3-2.6 4.1-5.6 5.4-9 1.6-4.4 1.6-8.7-0.1-13.1-1.2-3.3-3.1-6.3-5.4-8.9-2-2.2-4-4.2-6-6.2-29.8-29.5-59.9-58.8-90.3-87.6-3.5-3.3-6.8-6.7-10-10.3-3-3.3-5.4-7.1-6.8-11.5-1.2-3.8-1.2-7.5 0-11.2 1.4-4.1 3.4-7.7 6.1-10.9 3.3-3.8 6.8-7.6 10.4-11.2 24.3-24.2 48.7-48.2 72.9-72.3 63.3-63 126.6-125.9 189.8-189 20.4-20.3 40.6-40.8 60.9-61.2 3.6-3.6 7.4-7.1 11.2-10.5 2.9-2.5 6.3-4.4 10-5.7 4.1-1.4 8-1.4 12.1 0.1 4.7 1.6 8.6 4.4 12 7.7 4.2 4 8.2 8.2 12.2 12.3 28.3 28.7 56.9 57.1 84.3 86.6 1.6 1.7 3.1 3.3 4.8 4.8 2 1.6 4 3.1 6.2 4.5 7.1 4.6 14.4 4.7 21.7 0.4 2-1.1 3.8-2.3 5.6-3.7 2-1.6 3.9-3.4 5.7-5.2 27.1-26.7 54.1-53.5 81.2-80.2 6-5.9 10.9-12.5 15.1-19.8m-381.1 1603.6c-13.1-0.3-26.2-0.7-39.3-1.7-12.5-0.9-24.5-4.3-35.8-10-6.6-3.3-12.4-7.7-17.7-13-20.8-20.8-1058.5-1054.9-1171.5-1167.7-4.934-5-9.758-10.1-14.484-15.4-4.309-4.7-7.996-9.9-10.993-15.6-2.55-4.9-4.457-9.9-5.097-15.4-0.797-6.9 0.035-13.4 2.578-19.8 1.793-4.5 1377-1373.8 1382.9-1376.3 10.1-4.231 20-3.829 29.7 1.12 4.6 2.344 8.7 5.305 12.6 8.742 4.5 4.071 1334.6 1331.8 1336.8 1335.8 3 5.7 4.8 11.8 4.4 18.4-0.3 4.8-1.6 9.5-4 13.7-2 3.6-4.3 7.1-7 10.3-12.3 15.1-25.2 29.7-39 43.5-97.4 97.7-194.8 195.3-292.2 293-2.7 2.7-5.5 5.3-8.4 7.9-2.9 2.5-6 4.7-9.6 6.3-6.2 2.8-12.4 2.9-18.5-0.3-2.8-1.4-5.4-3.3-7.9-5.3s-450-450.9-452.3-453.1c-1.6-1.6-3.3-3-5-4.5-5.9-4.9-12.3-5.5-19.3-0.4-2.3 1.7-784.8 779-787.9 782.6-8.9 10.4-8.6 21.8 0.7 31.9 2.6 2.9 450.7 447.1 455.1 451.7 2.6 2.8 5 5.8 6.8 9.3 2 3.9 2.4 7.9 0.4 12-1.2 2.2-2.3 4.5-3.8 6.6-8.2 11.1-16.6 21.9-26.6 31.5-14.3 13.7-43.3 27-62.5 32.5 0 0-184.1 1.9-193.1 1.6" fill="#fff"/>
  <path id="path43" d="m1890.7 2309.7c-0.1 0.3 0 0.7-0.2 0.9-5.9 8.7-12.1 17.2-19.6 24.8-44.4 44.7-88.8 89.4-133.2 134.1-2.9 2.9-5.9 5.9-9.5 8.1-7.1 4.4-14.4 4.6-21.8 0.9-3.8-1.9-7.1-4.4-10.1-7.3-3-2.8-6-5.8-8.9-8.7-91.7-91.6-183.3-183.2-274.9-274.8-9.7-9.7-19.6-19.3-30-28.3-2.7-2.2-5.2-4.7-7.4-7.5-6.7-8.5-7.1-17.6-1.3-26.7 2.3-3.5 5.1-6.6 8-9.5 9-8.7 17.8-17.5 26.8-26.2 36.5-35.8 73.1-71.6 109-108.1 3.6-3.6 7.2-7.2 11.6-10 2.7-1.7 5.5-3.1 8.7-3.8 4.6-0.9 9-0.4 13.1 1.7 2.8 1.4 5.5 3.2 8 5.1 3 2.4 5.7 5.2 8.4 7.9 98.8 98.4 197.6 196.8 296.4 295.3 3.9 3.8 7.6 7.7 11.6 11.5 6.1 5.7 10.9 12.5 15.2 19.7 0.1 0.2 0 0.6 0.1 0.9" fill="#fff"/>
  <g id="g47" clip-path="url(#clip2)">
   <path id="path45" d="m1890.7 2309.7c-0.1-0.3 0-0.7-0.1-0.9-4.3-7.2-9.1-14-15.2-19.7-4-3.8-7.7-7.7-11.6-11.5-98.8-98.5-197.6-196.9-296.4-295.3-2.7-2.7-5.4-5.5-8.4-7.9-2.5-1.9-5.2-3.7-8-5.1-4.1-2.1-8.5-2.6-13.1-1.7-3.2 0.7-6 2.1-8.7 3.8-4.4 2.8-8 6.4-11.6 10-35.9 36.5-72.5 72.3-109 108.1-9 8.7-17.8 17.5-26.8 26.2-2.9 2.9-5.7 6-8 9.5-5.8 9.1-5.4 18.2 1.3 26.7 2.2 2.8 4.7 5.3 7.4 7.5 10.4 9 20.3 18.6 30 28.3 91.6 91.6 183.2 183.2 274.9 274.8 2.9 2.9 5.9 5.9 8.9 8.7 3 2.9 6.3 5.4 10.1 7.3 7.4 3.7 14.7 3.5 21.8-0.9 3.6-2.2 6.6-5.2 9.5-8.1 44.4-44.7 88.8-89.4 133.2-134.1 7.5-7.6 13.7-16.1 19.6-24.8 0.2-0.2 0.1-0.6 0.2-0.9m-333.7 389.5c13.7 0 15 0 26.7-7.9 9.9-9.5 28-29.6 52.3-57.8 1.5-2.1 2.6-4.4 3.8-6.6 2-4.1 1.6-8.1-0.4-12-1.8-3.5-459.3-458.1-461.9-461-9.3-10.1-9.6-21.5-0.7-31.9 3.1-3.6 785.6-780.9 787.9-782.6 7-5.1 13.4-4.5 19.3 0.4 1.7 1.5 462.4 461.5 465.2 462.9 7.8 4.1 10.8 4.5 18.5 0.3 8-8 359.9-369.9 360.2-374.7 0.4-6.6-1.4-12.7-4.4-18.4-2.2-4-1344.8-1342.2-1349.4-1344.6-9.7-4.929-19.6-5.331-29.7-1.124-5.9 2.488-1374.4 1370.3-1380.4 1376.3-6.742 6.7-10 11.5-5.074 19.8 6.07 6.7 1181.3 1193.3 1202.1 1214.1 21.1 19.4 21.1 19.4 53.5 23 13.1 1 226.8 1.8 242.5 1.8m1326.7-1253.4c-0.5 0.7-1255.4 1278.3-1265.2 1287.5-11.9 11.4-369.8 8.7-382.4-3.9-58.2-57.7-1228.6-1240.1-1230.7-1260.7-0.2438-1.9 0.0453-30.8 0.0453-30.8s1416.1-1425.9 1423.9-1431.5c6.9-5.65 34.1-6.2789 41.5 1.35 8.7 9.027 1412.5 1395.4 1412.9 1395.8z"/>
  </g>
  <path id="path49" d="m1734.9 1095.5c-4.2 7.3-9.1 13.9-15.1 19.8-27.1 26.7-54.1 53.5-81.2 80.2-1.8 1.8-3.7 3.6-5.7 5.2-1.8 1.4-3.6 2.6-5.6 3.7-7.3 4.3-14.6 4.2-21.7-0.4-2.2-1.4-4.2-2.9-6.2-4.5-1.7-1.5-3.2-3.1-4.8-4.8-27.4-29.5-56-57.9-84.3-86.6-4-4.1-8-8.3-12.2-12.3-3.4-3.3-7.3-6.1-12-7.7-4.1-1.5-8-1.5-12.1-0.1-3.7 1.3-7.1 3.2-10 5.7-3.8 3.4-7.6 6.9-11.2 10.5-20.3 20.4-40.5 40.9-60.9 61.2-63.2 63.1-126.5 126-189.8 189-24.2 24.1-48.6 48.1-72.9 72.3-3.6 3.6-7.1 7.4-10.4 11.2-2.7 3.2-4.7 6.8-6.1 10.9-1.2 3.7-1.2 7.4 0 11.2 1.4 4.4 3.8 8.2 6.8 11.5 3.2 3.6 6.5 7 10 10.3 30.5 28.8 60.5 58.1 90.3 87.6 2 2 4 4 6 6.2 2.3 2.6 4.2 5.6 5.4 8.9 1.7 4.4 1.7 8.8 0.1 13.1-1.3 3.4-3.1 6.4-5.4 9-1.7 2-3.5 3.8-5.4 5.5-27.1 25.4-53.2 51.8-79.4 78.1-2 2-4 4.1-6.3 5.9-2.2 1.8-4.6 3.5-7.1 4.8-5.7 3.1-11.6 3-17.5 0.3-3.2-1.6-6.1-3.6-8.8-5.9-2.3-2.1-4.6-4.4-6.9-6.7-73.6-74.8-148.04-148.7-222.57-222.6-3.87-3.8-7.64-7.7-11.36-11.7-2.19-2.3-4.12-4.9-5.41-7.9-1.21-2.7-1.34-5.6 0.04-8.3 1.17-2.3 2.56-4.5 4.21-6.4 2.91-3.4 6.01-6.6 9.18-9.8 31.72-31.6 63.48-63.2 95.21-94.8 60.8-60.5 121.5-121 182.2-181.5 83-82.7 165.9-165.34 248.8-248.05 16.8-16.72 33.3-33.7 49.9-50.55 2-2.05 4-4.21 6.2-6.03 2.4-2.02 5-3.98 7.8-5.5 5.7-3.11 11.6-3.2 17.5-0.43 3.2 1.51 6.1 3.47 8.7 5.85 2.4 2.15 4.7 4.39 6.9 6.66 55.2 55.24 110.3 110.49 165.5 165.75 18.6 18.5 37.1 37.1 55.8 55.5 7.5 7.5 13.9 15.8 20.5 24.1 0.6 0.7 0.9 1.7 1.3 2.6"/>
  <path id="path51" d="m525.91 1113.1c-0.07-3.9 1.24-7.2 2.95-10.3 2.02-3.7 589.84-591.14 591.74-592.86 1.6-1.51 3.4-2.96 5.2-4.21 6.8-4.6 13.8-4.88 20.6-0.19 3.1 2.16 247.2 245.74 250.2 249.01 5 8.7 5 9.22-0.5 19.17-4.2 6.47-96.3 100.26-97.9 101.37-7.7 5.52-14.3 5.66-22.1 0.25-2.6-1.82-119.5-116.76-124-117.78-2.3-0.51-4.4-0.48-6.6 0.05-3.9 0.89-7.3 2.6-10.3 5.05-3.7 3.04-350.74 348.14-353.27 352.24-1.7 2.8-2.82 5.7-2.89 9s0.46 6.4 2.2 9.2c1.35 2.2 113.42 113 115.34 115.1 1.93 2.2 3.45 4.6 4.54 7.3 1.51 3.8 1.52 7.5 0.05 11.3-1.18 3-103.63 106.3-105.24 107.3-4.72 3-9.61 3.4-14.48 0.3-1.89-1.1-3.68-2.5-5.38-3.9-1.7-1.5-244.36-242.4-246.62-246-2.27-3.6-3.8-7.3-3.54-11.4"/>
  <path id="path53" d="m1790.7 605.89c-0.6 0.31-44 46.03-48.3 51.23-2.7 3.32-1.7 6.19-0.1 8.69 4.9 6.63 95.2 102.89 95.2 106.86 0.1 3.64-0.8 6.98-2.7 10.05-2 3.32-27.1 27.43-29.1 29.07-7.7 6.49-16.7 6.23-23.8 0.78-3-2.32-85.4-85.94-87.5-87.39-8.3-5.75-14.6-5.6-22.9 0.45-1 0.76-32 30.32-34.3 34.59-1.5 2.83-2.7 5.78-3.2 8.98-0.8 5.28 0.5 10.14 3.1 14.73 2.3 3.94 198.4 197.81 199.6 198.87 5.8 5.2 6.1 7.03 2.5 13.57-3.6 4.53-34.2 36.23-37.8 39.03-3.2 1.1-6.2 1.4-9.4 0.3-3.1-1-6-2.3-8.5-4.2-3.4-2.6-245.4-241.01-247.6-243.69-9.4-11.02-9.5-20.76-0.3-31.85 2.1-2.45 239.6-239.62 242.5-242.17 3.1-2.79 6.7-4.9 10.7-6.08 2.6-0.73 5.1-0.77 7.6-0.02 3.1 0.92 6 2.19 8.5 4.27 3.2 2.68 249.1 246.77 251.5 249.75 6.3 10.05 5.4 13.01 0.3 20.11-0.8 0.98-34.2 30.93-36.7 32.35-4.8 2.78-9.8 2.62-14.5-0.34-3-1.86-212.8-207.15-213.9-207.81-0.2-0.15-0.6-0.09-0.9-0.13"/>
  <path id="path55" d="m2453.6 1589.7c1.6-0.3 3.2-0.6 4.7-1.1 3.4-1 206.1-198.8 213.4-201.4 1.5-0.5 3.1-0.8 4.7-1.1 2.9-0.4 5.7 0 8.1 2 3.7 3 29.2 28.1 38.3 38 0.9 0.9 1.4 3 0.2 4.3-8.2 9-259.9 262.5-263.8 263.9-3.8 1.4-7.5 1.3-11.3-0.1-3.3-1.3-6.3-3.2-8.9-5.5-3.2-2.7-245.1-245.4-247.2-249.4-3.2-6.5-3.2-12.9 0.3-19.3 1.3-2.5 253.3-254.1 255.7-255.5 3.6-2.1 7.4-2 11.1-0.1 1.9 1 36.5 34.3 38 36.4 4.5 6.3 4.8 13.3 0.5 19.7-2 2.9-198.1 196.4-199.6 199.1-3.6 6.7-3.6 13.5-0.4 20.3 1.7 3.5 147.7 147.8 151.5 148.8 1.5 0.5 3.1 0.7 4.7 1"/>
  <path id="path57" d="m2234.5 1050.8c-0.4 0.3-3.2-2.1-5.2-0.2-10.3 10.2-201.1 198.7-203.6 200.3-7.5 4.7-15.2 4.6-22.6-0.1-3.2-2-31-27.6-32.5-29.7-3.7-5.1-4-10.6-1.3-16.3 1.4-3.2 200.6-206.4 203.5-209.51 2.3-4.22 1.5-7.05-0.9-11.22-1.6-2.75-85.6-86.55-87.4-88.75-8.1-9.51-8.1-19.83 0-29.58 1-1.23 27.3-25.04 29.2-26.28 6.9-4.67 13.7-4.36 20.4 0.65 2 1.54 252.9 250.09 254.5 252.89 3.3 5.8 3 11.6-0.9 17.1-1.4 2.1-35.3 33.7-37.9 35.1-4.5 2.5-9.2 2.5-13.6-0.4-2.9-1.9-83.3-78.3-101.7-94"/>
  <path id="path59" d="m1197.8 443.39c0.5-1.93 0.8-3.83 1.4-5.6 1.1-3.06 252.9-255.58 256.1-257.53 5.1-3.01 10.5-2.94 15.6-0.14 2.8 1.52 33.4 32.17 34.9 36.13 1.9 5.09 1.8 10.07-0.8 14.84-1.3 2.51-38.1 38.78-39.3 43.59-0.5 2.22-0.5 4.4 0.1 6.62 0.9 3.14 2.2 6.05 4.4 8.45 2.1 2.37 36.6 35.16 41.3 39.97 1.8 1.78 1.7 2.92-0.2 4.93-6.5 7.03-38.5 37.34-40.8 39.02-2.6 1.87-3.5 1.62-6.3 0.59-3.6-2.48-41.3-32.06-49.2-37.76-7.2-4.83-10.6-4.07-15.5 0.8-3.2 1.48-145 145.48-147.1 146.89-5.3 3.49-10.8 3.82-16.4 0.81-2.5-1.37-37.6-39.75-38.2-41.61"/>
  <path id="path61" d="m1571.8 498.01c-0.5-1.1-33-37.85-35.3-40.48-1.7-1.91-3.3-3.99-4.6-6.15-3.3-5.31-3.5-10.9-0.7-16.43 1.4-2.83 29.4-32.48 31.9-33.94 5.7-3.35 11.5-3.32 17.4-0.26 3.4 1.8 33.8 31.39 36.8 33.2 6.2 3.79 12.7 3.76 19.2 0.46 4-2.04 42.2-33.36 45.5-34.46 1.9-0.63 3.8-0.66 5.6 0.41 2.8 2.16 28.5 25.56 39.3 36.09 1.8 2.24 1.9 4.72 0.8 7.22-3.1 7.11-246.7 253.02-257.3 254.72-6.6 1.86-10.2 2.06-14.8 0.4-1-0.37-31.5-23.18-33.1-25.17-4.8-6.12-6.5-12.23-2.8-19.21 1.6-3.14 145.6-147.3 152.1-156.4"/>
  <path id="path63" d="m1455.7 478.57l-26.3-26.26c-4.6-4.67-4.6-12.3 0-16.97l26.3-26.25c4.7-4.67 12.3-4.67 17 0l26.2 26.25c4.7 4.67 4.7 12.3 0 16.97l-26.2 26.26c-4.7 4.66-12.3 4.66-17 0"/>
 </g>
</svg>
